<svg height="512pt" viewBox="0 -61 512 512" width="512pt" xmlns="http://www.w3.org/2000/svg"><path d="m263.648438 388.378906c-2.320313 1.03125-4.789063 1.570313-7.28125 1.609375-.121094.011719-.25.011719-.371094.011719-2.609375 0-5.207032-.539062-7.636719-1.621094l-237.230469-105.589844c-6.757812-3.011718-11.128906-9.730468-11.128906-17.125 0-7.386718 4.371094-14.105468 11.128906-17.113281l237.21875-105.59375c2.429688-1.089843 5.039063-1.628906 7.648438-1.621093h.371094c2.492187.042968 4.960937.589843 7.28125 1.621093l237.21875 105.59375c6.761718 3.007813 11.128906 9.726563 11.128906 17.113281 0 7.394532-4.367188 14.113282-11.128906 17.125" fill="#00ceb3"/><path d="m511.996094 265.664062c0 7.394532-4.367188 14.113282-11.128906 17.125l-237.21875 105.589844c-2.320313 1.03125-4.789063 1.570313-7.28125 1.609375v-248.652343c2.492187.039062 4.960937.589843 7.28125 1.621093l237.21875 105.59375c6.761718 3.007813 11.128906 9.726563 11.128906 17.113281zm0 0" fill="#00ae93"/><path d="m512 195.421875c0 7.398437-4.371094 14.117187-11.128906 17.125l-237.21875 105.59375c-2.320313 1.03125-4.789063 1.570313-7.28125 1.609375-.117188.007812-.25.007812-.367188.007812-2.613281 0-5.210937-.539062-7.640625-1.617187l-237.230469-105.59375c-6.761718-3.007813-11.12890575-9.726563-11.12890575-17.125 0-7.386719 4.36718775-14.101563 11.12890575-17.113281l237.21875-105.59375c2.429688-1.089844 5.039063-1.628906 7.648438-1.617188h.371094c2.488281.039063 4.960937.589844 7.28125 1.617188l237.21875 105.59375c6.757812 3.011718 11.128906 9.726562 11.128906 17.113281zm0 0" fill="#ca5c49"/><path d="m512 195.421875c0 7.398437-4.371094 14.117187-11.128906 17.125l-237.21875 105.59375c-2.320313 1.03125-4.789063 1.570313-7.28125 1.609375v-248.652344c2.492187.039063 4.960937.589844 7.28125 1.617188l237.21875 105.59375c6.757812 3.011718 11.128906 9.726562 11.128906 17.113281zm0 0" fill="#9e4127"/><path d="m511.996094 124.332031c0 7.394531-4.367188 14.113281-11.128906 17.121094l-237.21875 105.59375c-2.320313 1.03125-4.789063 1.570313-7.28125 1.609375-.121094.011719-.25.011719-.371094.011719-2.609375 0-5.207032-.542969-7.636719-1.621094l-237.230469-105.59375c-6.757812-3.007813-11.128906-9.726563-11.128906-17.121094 0-7.386719 4.371094-14.105469 11.128906-17.117187l237.21875-105.589844c2.429688-1.089844 5.039063-1.62890625 7.648438-1.62109375h.371094c2.492187.03906255 4.960937.58984375 7.28125 1.62109375l237.21875 105.589844c6.761718 3.011718 11.128906 9.730468 11.128906 17.117187zm0 0" fill="#a2ee00"/><g fill="#76d400"><path d="m511.996094 124.332031c0 7.394531-4.367188 14.113281-11.128906 17.121094l-237.21875 105.59375c-2.320313 1.03125-4.789063 1.570313-7.28125 1.609375v-248.65234375c2.492187.03906255 4.960937.58984375 7.28125 1.61718775l237.21875 105.59375c6.761718 3.011718 11.128906 9.730468 11.128906 17.117187zm0 0"/><path d="m175.570312 118.773438-107.011718 48.242187-57.429688-25.5625c-6.757812-3.007813-11.128906-9.726563-11.128906-17.121094 0-7.386719 4.371094-14.105469 11.128906-17.117187l70.332032-31.308594zm0 0"/><path d="m360.699219 203.851562-97.050781 43.195313c-2.320313 1.03125-4.789063 1.570313-7.28125 1.609375-.117188.011719-.25.011719-.367188.011719-.101562 0-.210938 0-.3125-.011719-2.507812-.03125-5-.570312-7.328125-1.609375l-96.558594-42.972656 104.199219-47.855469.367188.171875zm0 0"/></g><path d="m511.996094 124.332031c0 7.394531-4.367188 14.113281-11.128906 17.121094l-56.949219 25.351563-106.75-47.972657 93.839843-42.714843 69.859376 31.097656c6.761718 3.011718 11.128906 9.730468 11.128906 17.117187zm0 0" fill="#00bd00"/><path d="m351.886719 40.898438-95.519531 41.855468-95.777344-42.074218 87.757812-39.054688c2.542969-1.140625 5.292969-1.6796875 8.019532-1.62109375 2.492187.03906255 4.960937.58984375 7.28125 1.62109375zm0 0" fill="#76d400"/><path d="m337.167969 118.832031-80.800781 37.21875-.371094.167969-80.425782-37.445312 80.796876-36.019532zm0 0" fill="#76d400"/><path d="m337.167969 118.832031-80.800781 37.21875v-73.296875zm0 0" fill="#00bd00"/><path d="m351.886719 40.898438-95.519531 41.855468v-82.74999975c2.492187.03906255 4.960937.58984375 7.28125 1.61718775zm0 0" fill="#00bd00"/><path d="m360.699219 203.851562-97.050781 43.195313c-2.320313 1.03125-4.789063 1.570313-7.28125 1.609375v-92.265625zm0 0" fill="#00bd00"/></svg>